<svg width="19" height="12" viewBox="0 0 19 12" fill="none" xmlns="http://www.w3.org/2000/svg">
<path d="M16.8248 0.187866H1.86868C0.841242 0.187866 0.00897314 0.841699 0.00897314 1.64112L0 10.3589C0 11.1583 0.841242 11.8121 1.86868 11.8121H16.8248C17.8523 11.8121 18.6935 11.1583 18.6935 10.3589V1.64112C18.6935 0.841699 17.8523 0.187866 16.8248 0.187866ZM16.4502 3.2757L9.84254 6.48732C9.69346 6.55866 9.52183 6.59644 9.34676 6.59644C9.1717 6.59644 9.00007 6.55866 8.85099 6.48732L2.24331 3.2757C2.15089 3.23429 2.07015 3.17884 2.00591 3.11266C1.94167 3.04647 1.89524 2.9709 1.86941 2.89046C1.84357 2.81002 1.83885 2.72635 1.85552 2.64446C1.8722 2.56257 1.90993 2.48413 1.96647 2.41383C2.023 2.34352 2.09719 2.28279 2.18459 2.23525C2.27199 2.18772 2.37081 2.15436 2.47517 2.13716C2.57952 2.11996 2.68726 2.11928 2.79196 2.13516C2.89666 2.15103 2.99617 2.18314 3.08456 2.22957L9.34676 5.27381L15.609 2.22957C15.6974 2.18314 15.7969 2.15103 15.9016 2.13516C16.0063 2.11928 16.114 2.11996 16.2184 2.13716C16.3227 2.15436 16.4215 2.18772 16.5089 2.23525C16.5963 2.28279 16.6705 2.34352 16.7271 2.41383C16.7836 2.48413 16.8213 2.56257 16.838 2.64446C16.8547 2.72635 16.85 2.81002 16.8241 2.89046C16.7983 2.9709 16.7519 3.04647 16.6876 3.11266C16.6234 3.17884 16.5426 3.23429 16.4502 3.2757Z" fill="white"/>
</svg>
