<svg width="30" height="30" viewBox="0 0 30 30" fill="none" xmlns="http://www.w3.org/2000/svg">
<path d="M4.58333 0C2.06685 0 0 2.06685 0 4.58333V25.4167C0 27.9331 2.06685 30 4.58333 30H25.4167C27.9331 30 30 27.9331 30 25.4167V4.58333C30 2.06685 27.9331 0 25.4167 0H4.58333ZM4.58333 2.5H25.4167C26.5819 2.5 27.5 3.41814 27.5 4.58333V25.4167C27.5 26.5819 26.5819 27.5 25.4167 27.5H20V19.1667H23.0208C23.4408 19.1667 23.796 18.8525 23.8477 18.4359L24.1602 15.9359C24.1902 15.6992 24.115 15.4616 23.9567 15.2816C23.7992 15.1024 23.5725 15 23.3333 15H20V12.0833C20 11.1642 20.7475 10.4167 21.6667 10.4167H23.3333C23.7933 10.4167 24.1667 10.0442 24.1667 9.58333V6.77083C24.1667 6.33917 23.8374 5.97909 23.4082 5.94076C23.359 5.93659 22.1833 5.83333 20.695 5.83333C17.0225 5.83333 15 8.01349 15 11.9727V15H11.6667C11.2067 15 10.8333 15.3725 10.8333 15.8333V18.3333C10.8333 18.7942 11.2067 19.1667 11.6667 19.1667H15V27.5H4.58333C3.41814 27.5 2.5 26.5819 2.5 25.4167V4.58333C2.5 3.41814 3.41814 2.5 4.58333 2.5Z" fill="white"/>
</svg>
