<svg width="15" height="16" viewBox="0 0 15 16" fill="none" xmlns="http://www.w3.org/2000/svg">
<path d="M7.47808 0.852722C3.55229 0.852722 0 3.1917 0 6.80957C0 9.11978 2.29042 11.8371 6.86117 14.9677C7.0339 15.0835 7.25443 15.1472 7.48257 15.1472C7.71071 15.1472 7.93125 15.0835 8.10397 14.9677C12.6657 11.8371 14.9562 9.11978 14.9562 6.80957C14.9562 3.1917 11.4039 0.852722 7.47808 0.852722ZM7.47808 8.11724C6.44953 8.11724 5.60828 7.4634 5.60828 6.66398C5.60828 5.86456 6.44953 5.21073 7.47808 5.21073C8.50664 5.21073 9.34789 5.86456 9.34789 6.66398C9.34789 7.4634 8.50664 8.11724 7.47808 8.11724Z" fill="white"/>
</svg>
