<svg width="17" height="14" viewBox="0 0 17 14" fill="none" xmlns="http://www.w3.org/2000/svg">
<path d="M15.1458 9.3747L12.7712 9.16373C12.4922 9.13832 12.2093 9.16237 11.944 9.23409C11.6786 9.30581 11.4376 9.42333 11.239 9.57782L9.51841 10.9143C6.86535 9.86541 4.70888 8.18935 3.35939 6.12733L5.08787 4.78305C5.49054 4.47096 5.68683 4.03507 5.62065 3.59133L5.35033 1.7606C5.29721 1.40615 5.07824 1.07925 4.73511 0.842138C4.39198 0.605027 3.94864 0.474261 3.48951 0.474733H1.8732C0.816598 0.474733 -0.0616591 1.15821 0.00339701 1.97855C0.499169 8.18298 6.88252 13.1373 14.8564 13.5226C15.9119 13.5732 16.7912 12.8906 16.7912 12.0694V10.8131C16.7936 10.4578 16.6268 10.1144 16.3231 9.8489C16.0193 9.58337 15.6 9.41448 15.1458 9.3747Z" fill="white"/>
</svg>
