<svg width="38" height="30" viewBox="0 0 38 30" fill="none" xmlns="http://www.w3.org/2000/svg">
<path d="M18.75 0C18.75 0 7.0229 -5.87702e-05 4.0979 0.783691C2.48353 1.21494 1.21494 2.4854 0.783691 4.0979C-5.87702e-05 7.0229 0 15 0 15C0 15 -5.87702e-05 22.9771 0.783691 25.9021C1.21494 27.5165 2.4854 28.7851 4.0979 29.2163C7.0229 30.0001 18.75 30 18.75 30C18.75 30 30.4771 30.0001 33.4021 29.2163C35.0146 28.7851 36.2851 27.5146 36.7163 25.9021C37.5001 22.9771 37.5 15 37.5 15C37.5 15 37.5001 7.0229 36.7163 4.0979C36.2851 2.4854 35.0146 1.21494 33.4021 0.783691C30.4771 -5.87702e-05 18.75 0 18.75 0ZM18.75 3.75C24.1537 3.75 30.9204 4.00052 32.4316 4.40552C32.7485 4.48989 33.0082 4.74961 33.0945 5.06836C33.5464 6.75211 33.75 11.8913 33.75 15C33.75 18.1087 33.5464 23.246 33.0945 24.9316C33.0101 25.2485 32.7504 25.5082 32.4316 25.5945C30.9223 25.9995 24.1537 26.25 18.75 26.25C13.3481 26.25 6.58148 25.9995 5.06836 25.5945C4.75148 25.5101 4.49177 25.2504 4.40552 24.9316C3.95364 23.2479 3.75 18.1087 3.75 15C3.75 11.8913 3.95364 6.7522 4.40552 5.0647C4.48989 4.7497 4.74961 4.48989 5.06836 4.40552C6.57773 4.00052 13.3463 3.75 18.75 3.75ZM15 8.50342V21.4966L26.25 15L15 8.50342Z" fill="white"/>
</svg>
