<svg width="1759" height="612" viewBox="0 0 1759 612" fill="none" xmlns="http://www.w3.org/2000/svg">
<path d="M215.009 55.5722L260.328 10.2169C262.415 11.4023 265.095 11.1201 266.871 9.342C269.015 7.19701 269.015 3.72551 266.871 1.60874C264.728 -0.536248 261.259 -0.536248 259.144 1.60874C257.367 3.38683 257.085 6.06807 258.27 8.15661L213.796 52.637H10.7166C10.068 50.3226 7.98104 48.6292 5.4711 48.6292C2.45353 48.6292 0 51.0847 0 54.1046C0 57.1245 2.45353 59.58 5.4711 59.58C7.98104 59.58 10.0962 57.8583 10.7166 55.5722H215.009Z" fill="url(#paint0_linear_3_42)" fill-opacity="0.25"/>
<path d="M185.679 76.0343C182.661 76.0343 180.208 78.4898 180.208 81.5097C180.208 84.5296 182.661 86.9851 185.679 86.9851C188.189 86.9851 190.304 85.2634 190.924 82.9773H269.748L333.624 19.0509H568.628C569.276 21.3652 571.363 23.0587 573.873 23.0587C576.891 23.0587 579.344 20.6032 579.344 17.5833C579.344 14.5634 576.891 12.1079 573.873 12.1079C571.363 12.1079 569.248 13.8295 568.628 16.1157H332.412L268.535 80.0421H190.924C190.276 77.7277 188.189 76.0343 185.679 76.0343Z" fill="url(#paint1_linear_3_42)" fill-opacity="0.25"/>
<path d="M356.75 57.7737C353.732 57.7737 351.279 60.2291 351.279 63.249C351.279 66.2689 353.732 68.7244 356.75 68.7244C359.26 68.7244 361.375 67.0028 361.995 64.7167H633.491L675.681 106.939H963.224C963.873 109.253 965.96 110.947 968.469 110.947C971.487 110.947 973.941 108.491 973.941 105.471C973.941 102.452 971.487 99.9961 968.469 99.9961C965.96 99.9961 963.844 101.69 963.224 104.004H676.894L634.704 61.7814H361.995C361.347 59.4671 359.26 57.7737 356.75 57.7737Z" fill="url(#paint2_linear_3_42)" fill-opacity="0.25"/>
<path d="M712.569 91.5291C715.078 91.5291 717.194 89.8074 717.814 87.5213H1008.77L1070.36 25.881H1271.16C1271.81 28.1954 1273.89 29.8888 1276.4 29.8888C1279.42 29.8888 1281.87 27.4333 1281.87 24.4134C1281.87 21.3935 1279.42 18.938 1276.4 18.938C1273.89 18.938 1271.78 20.6597 1271.16 22.9458H1069.15L1007.56 84.5861H717.814C717.165 82.2717 715.078 80.5783 712.569 80.5783C709.551 80.5783 707.097 83.0338 707.097 86.0537C707.097 89.1018 709.551 91.5291 712.569 91.5291Z" fill="url(#paint3_linear_3_42)" fill-opacity="0.25"/>
<path d="M1050.9 130.252H852.392C851.743 127.937 849.656 126.244 847.146 126.244C844.129 126.244 841.675 128.7 841.675 131.719C841.675 134.739 844.129 137.195 847.146 137.195C849.656 137.195 851.771 135.473 852.392 133.187H1052.12L1121.69 63.5595H1338.3L1382.21 107.504H1611.01C1611.66 109.818 1613.75 111.511 1616.26 111.511C1619.28 111.511 1621.73 109.056 1621.73 106.036C1621.73 103.016 1619.28 100.561 1616.26 100.561C1613.75 100.561 1611.63 102.254 1611.01 104.568H1383.43L1339.52 60.6242H1120.48L1050.9 130.252Z" fill="url(#paint4_linear_3_42)" fill-opacity="0.25"/>
<path d="M263.741 562.524L203.615 502.351H28.963C28.3144 500.037 26.2274 498.344 23.7175 498.344C20.6999 498.344 18.2464 500.799 18.2464 503.819C18.2464 506.839 20.6999 509.294 23.7175 509.294C26.2274 509.294 28.3426 507.573 28.963 505.287H202.374L261.654 564.613C260.469 566.701 260.752 569.382 262.528 571.16C264.672 573.305 268.14 573.305 270.255 571.16C272.399 569.015 272.399 565.544 270.255 563.427C268.507 561.621 265.828 561.339 263.741 562.524Z" fill="url(#paint5_linear_3_42)" fill-opacity="0.25"/>
<path d="M569.305 550.36C572.322 550.36 574.776 547.904 574.776 544.884C574.776 541.864 572.322 539.409 569.305 539.409C566.795 539.409 564.68 541.102 564.059 543.417H283.426L250.373 510.339C251.558 508.25 251.276 505.569 249.499 503.791C247.356 501.646 243.887 501.646 241.772 503.791C239.629 505.936 239.629 509.407 241.772 511.524C243.549 513.302 246.228 513.584 248.315 512.399L282.213 546.324H564.059C564.708 548.666 566.795 550.36 569.305 550.36Z" fill="url(#paint6_linear_3_42)" fill-opacity="0.25"/>
<path d="M1164.64 590.889C1167.66 590.889 1170.11 588.433 1170.11 585.413C1170.11 582.393 1167.66 579.938 1164.64 579.938C1162.13 579.938 1160.01 581.66 1159.39 583.946H870.215L808.059 521.741H671.141L622.098 570.822H542.175C541.526 568.507 539.439 566.814 536.929 566.814C533.912 566.814 531.458 569.27 531.458 572.289C531.458 575.309 533.912 577.765 536.929 577.765C539.439 577.765 541.554 576.043 542.175 573.757H623.282L672.325 524.676H806.846L869.003 586.881H1159.39C1160.04 589.167 1162.13 590.889 1164.64 590.889Z" fill="url(#paint7_linear_3_42)" fill-opacity="0.25"/>
<path d="M1572.91 522.277C1570.4 522.277 1568.29 523.971 1567.67 526.285H1332.58L1253.87 605.029H1116.95C1116.3 602.714 1114.22 601.021 1111.71 601.021C1108.69 601.021 1106.23 603.477 1106.23 606.496C1106.23 609.516 1108.69 611.972 1111.71 611.972C1114.22 611.972 1116.33 610.25 1116.95 607.964H1255.08L1333.79 529.22H1567.67C1568.32 531.535 1570.4 533.228 1572.91 533.228C1575.93 533.228 1578.38 530.773 1578.38 527.753C1578.38 524.733 1575.96 522.277 1572.91 522.277Z" fill="url(#paint8_linear_3_42)" fill-opacity="0.25"/>
<path d="M28.2862 477.317C30.7961 477.317 32.9112 475.595 33.5317 473.309H224.118L315.35 382.006H520.629L583.039 319.547C585.126 320.733 587.805 320.45 589.582 318.672C591.725 316.527 591.725 313.056 589.582 310.939C587.438 308.794 583.97 308.794 581.854 310.939C580.078 312.717 579.796 315.398 580.98 317.487L519.416 379.099H314.165L222.933 470.402H33.5317C32.883 468.088 30.7961 466.395 28.2862 466.395C25.2686 466.395 22.8151 468.85 22.8151 471.87C22.8151 474.862 25.2686 477.317 28.2862 477.317Z" fill="url(#paint9_linear_3_42)" fill-opacity="0.25"/>
<path d="M809.131 489.284L854.761 534.95H1203.73L1248.82 580.051L1317.86 510.96H1563.13C1563.78 513.274 1565.86 514.967 1568.37 514.967C1571.39 514.967 1573.84 512.512 1573.84 509.492C1573.84 506.472 1571.39 504.017 1568.37 504.017C1565.86 504.017 1563.75 505.71 1563.13 508.024H1316.65L1248.82 575.902L1204.94 531.986H855.945L810.315 486.32H598.183L518.345 406.419H323.274L273.414 456.375C271.327 455.19 268.648 455.472 266.871 457.25C264.728 459.395 264.728 462.867 266.871 464.983C269.015 467.128 272.483 467.128 274.599 464.983C276.375 463.205 276.657 460.524 275.473 458.436L324.487 409.383H517.16L596.999 489.284H809.131Z" fill="url(#paint10_linear_3_42)" fill-opacity="0.25"/>
<path d="M536.817 504.355C538.96 506.5 542.429 506.5 544.544 504.355C546.687 502.21 546.687 498.739 544.544 496.622C542.767 494.844 540.088 494.562 538.001 495.747L513.804 471.531H328.971L305.338 495.183C303.251 493.997 300.572 494.279 298.795 496.057C296.652 498.202 296.652 501.674 298.795 503.791C300.939 505.936 304.408 505.936 306.523 503.791C308.299 502.013 308.581 499.331 307.397 497.243L330.184 474.438H512.591L535.942 497.807C534.786 499.896 535.04 502.577 536.817 504.355Z" fill="url(#paint11_linear_3_42)" fill-opacity="0.25"/>
<path d="M710.538 166.209L626.131 81.7355H348.938L319.27 111.398H29.5552C28.9066 109.084 26.8197 107.391 24.3097 107.391C21.2922 107.391 18.8386 109.846 18.8386 112.866C18.8386 115.886 21.2922 118.341 24.3097 118.341C26.8197 118.341 28.9348 116.62 29.5552 114.334H320.511L350.15 84.6707H624.946L709.354 169.144H1080.06L1145.89 103.27C1147.97 104.455 1150.65 104.173 1152.43 102.395C1154.57 100.25 1154.57 96.7786 1152.43 94.6619C1150.28 92.5169 1146.82 92.5169 1144.7 94.6619C1142.92 96.44 1142.64 99.1212 1143.83 101.21L1078.85 166.237H710.538V166.209Z" fill="url(#paint12_linear_3_42)" fill-opacity="0.25"/>
<path d="M286.866 174.252C284.723 172.107 281.254 172.107 279.139 174.252C276.996 176.397 276.996 179.869 279.139 181.986C280.916 183.764 283.595 184.046 285.682 182.861L304.182 201.375H595.335L641.952 154.722H660.988C661.637 157.036 663.724 158.729 666.233 158.729C669.251 158.729 671.705 156.274 671.705 153.254C671.705 150.234 669.251 147.779 666.233 147.779C663.724 147.779 661.608 149.472 660.988 151.786H640.739L594.122 198.44H305.395L287.74 180.772C288.925 178.712 288.643 176.03 286.866 174.252Z" fill="url(#paint13_linear_3_42)" fill-opacity="0.25"/>
<path d="M318.226 159.943L297.696 139.396H99.1003C98.4516 137.082 96.3647 135.389 93.8548 135.389C90.8372 135.389 88.3837 137.844 88.3837 140.864C88.3837 143.884 90.8372 146.339 93.8548 146.339C96.3647 146.339 98.4798 144.618 99.1003 142.332H296.483L317.014 162.878H564.567L589.92 137.505C592.007 138.691 594.686 138.408 596.463 136.63C598.606 134.485 598.606 131.014 596.463 128.897C594.319 126.752 590.851 126.752 588.736 128.897C586.959 130.675 586.677 133.356 587.861 135.445L563.382 159.943H318.226Z" fill="url(#paint14_linear_3_42)" fill-opacity="0.25"/>
<path d="M224.428 183.651C222.285 181.506 218.816 181.506 216.701 183.651C214.557 185.796 214.557 189.267 216.701 191.384C218.477 193.162 221.157 193.444 223.244 192.259L297.357 266.431H629.571L690.402 205.552C692.489 206.738 695.168 206.455 696.945 204.677C699.088 202.532 699.088 199.061 696.945 196.944C694.802 194.799 691.333 194.799 689.218 196.944C687.441 198.722 687.159 201.403 688.344 203.492L628.359 263.524H298.542L225.302 190.227C226.458 188.138 226.205 185.429 224.428 183.651Z" fill="url(#paint15_linear_3_42)" fill-opacity="0.25"/>
<path d="M1321.44 88.7349C1318.93 88.7349 1316.81 90.4283 1316.19 92.7427H1199.3L1107.36 184.752H673.679L619.786 238.687H309.653L241.236 170.216H46.0813C45.4327 167.902 43.3458 166.209 40.8358 166.209C37.8183 166.209 35.3647 168.664 35.3647 171.684C35.3647 174.704 37.8183 177.159 40.8358 177.159C43.3458 177.159 45.4609 175.438 46.0813 173.152H240.023L308.44 241.622H620.998L674.891 187.687H1108.55L1200.48 95.6779H1316.17C1316.82 97.9923 1318.9 99.6857 1321.41 99.6857C1324.43 99.6857 1326.88 97.2302 1326.88 94.2103C1326.91 91.1904 1324.46 88.7349 1321.44 88.7349Z" fill="url(#paint16_linear_3_42)" fill-opacity="0.25"/>
<path d="M549.451 387.397C547.307 385.252 543.839 385.252 541.723 387.397C539.58 389.542 539.58 393.013 541.723 395.13C543.5 396.908 546.179 397.19 548.266 396.005L604.416 452.198H874.192L973.405 352.908H1177.61C1178.26 355.222 1180.35 356.915 1182.86 356.915C1185.88 356.915 1188.33 354.46 1188.33 351.44C1188.33 348.42 1185.88 345.965 1182.86 345.965C1180.35 345.965 1178.23 347.686 1177.61 349.972H972.192L872.979 449.263H605.6L550.325 393.945C551.509 391.856 551.227 389.175 549.451 387.397Z" fill="url(#paint17_linear_3_42)" fill-opacity="0.25"/>
<path d="M311.232 288.332C310.584 286.018 308.497 284.324 305.987 284.324C302.969 284.324 300.516 286.78 300.516 289.8C300.516 292.82 302.969 295.275 305.987 295.275C308.497 295.275 310.612 293.553 311.232 291.267H541.611L494.373 338.542C492.286 337.356 489.607 337.639 487.83 339.417C485.687 341.562 485.687 345.033 487.83 347.15C489.974 349.295 493.443 349.295 495.558 347.15C497.334 345.372 497.616 342.691 496.432 340.602L548.633 288.36H311.232V288.332Z" fill="url(#paint18_linear_3_42)" fill-opacity="0.25"/>
<path d="M659.662 295.529L578.583 376.672L623.226 421.35H863.926L959.417 325.785C961.504 326.97 964.183 326.688 965.96 324.91C968.103 322.765 968.103 319.293 965.96 317.177C963.816 315.032 960.347 315.032 958.232 317.177C956.456 318.955 956.174 321.636 957.358 323.724L862.742 418.443H624.439L582.7 376.672L666.685 292.622H576.186L534.589 334.252C532.502 333.066 529.823 333.349 528.046 335.127C525.903 337.272 525.903 340.743 528.046 342.86C530.189 345.005 533.658 345.005 535.773 342.86C537.55 341.082 537.832 338.401 536.647 336.312L577.399 295.529H659.662Z" fill="url(#paint19_linear_3_42)" fill-opacity="0.25"/>
<path d="M462.562 327.224C463.21 329.538 465.297 331.232 467.807 331.232C470.825 331.232 473.278 328.776 473.278 325.757C473.278 322.737 470.825 320.281 467.807 320.281C465.297 320.281 463.21 321.975 462.562 324.289H309.653L198.454 213.003H63.1715C62.5228 210.689 60.4359 208.996 57.926 208.996C54.9084 208.996 52.4549 211.451 52.4549 214.471C52.4549 217.491 54.9084 219.946 57.926 219.946C60.4359 219.946 62.551 218.225 63.1715 215.939H197.242L308.44 327.224H462.562Z" fill="url(#paint20_linear_3_42)" fill-opacity="0.25"/>
<path d="M34.0957 433.881C33.447 431.567 31.3601 429.873 28.8502 429.873C25.8326 429.873 23.3791 432.329 23.3791 435.349C23.3791 438.369 25.8326 440.824 28.8502 440.824C31.3601 440.824 33.4752 439.102 34.0957 436.816H230.971L294.819 372.918C296.906 374.104 299.585 373.821 301.362 372.043C303.505 369.898 303.505 366.427 301.362 364.31C299.218 362.165 295.75 362.165 293.635 364.31C291.858 366.088 291.576 368.769 292.76 370.858L229.786 433.881H34.0957Z" fill="url(#paint21_linear_3_42)" fill-opacity="0.25"/>
<path d="M716.46 219.015L679.996 255.508C677.909 254.323 675.23 254.605 673.453 256.383C671.31 258.528 671.31 261.999 673.453 264.116C675.596 266.261 679.065 266.261 681.18 264.116C682.957 262.338 683.239 259.657 682.054 257.568L717.673 221.922H1134.24L1171.13 185.006C1173.21 186.191 1175.89 185.909 1177.67 184.131C1179.81 181.986 1179.81 178.514 1177.67 176.397C1175.53 174.252 1172.06 174.252 1169.94 176.397C1168.16 178.175 1167.88 180.857 1169.07 182.945L1133.03 219.015H716.46Z" fill="url(#paint22_linear_3_42)" fill-opacity="0.25"/>
<path d="M1105.9 287.147C1108.91 287.147 1111.37 284.691 1111.37 281.671C1111.37 278.651 1108.91 276.196 1105.9 276.196C1103.39 276.196 1101.27 277.918 1100.65 280.204H916.184L866.154 330.272H659.014L719.929 269.309C722.016 270.495 724.695 270.212 726.472 268.434C728.615 266.289 728.615 262.818 726.472 260.701C724.329 258.556 720.86 258.556 718.745 260.701C716.968 262.479 716.686 265.16 717.87 267.249L651.963 333.207H867.339L917.368 283.139H1100.62C1101.27 285.425 1103.39 287.147 1105.9 287.147Z" fill="url(#paint23_linear_3_42)" fill-opacity="0.25"/>
<path d="M644.969 384.208L630.728 369.955C631.912 367.866 631.63 365.185 629.853 363.407C627.71 361.262 624.241 361.262 622.126 363.407C620.011 365.552 619.983 369.023 622.126 371.14C623.903 372.918 626.582 373.2 628.669 372.015L643.757 387.115H858.794L916.635 329.228C918.722 330.413 921.401 330.131 923.178 328.353C925.321 326.208 925.321 322.737 923.178 320.62C921.034 318.475 917.566 318.475 915.45 320.62C913.674 322.398 913.392 325.079 914.576 327.168L857.581 384.208H644.969Z" fill="url(#paint24_linear_3_42)" fill-opacity="0.25"/>
<path d="M1288.39 135.671H1367.52C1368.17 137.985 1370.26 139.678 1372.77 139.678C1375.78 139.678 1378.24 137.223 1378.24 134.203C1378.24 131.183 1375.78 128.728 1372.77 128.728C1370.26 128.728 1368.17 130.449 1367.52 132.735H1287.2L1165.54 254.492H888.828L847.344 296.009H730.843L769.536 257.286C771.623 258.472 774.302 258.189 776.079 256.411C778.222 254.266 778.222 250.795 776.079 248.678C773.935 246.533 770.466 246.533 768.351 248.678C766.575 250.456 766.293 253.137 767.477 255.226L723.821 298.916H848.528L890.013 257.399H1166.73L1288.39 135.671Z" fill="url(#paint25_linear_3_42)" fill-opacity="0.25"/>
<path d="M1483.97 482.934C1481.46 482.934 1479.34 484.627 1478.72 486.941H1314.36L1278.43 522.898H1223.19L1199.24 498.936H865.647L841.703 474.975H793.648C792.999 472.66 790.912 470.967 788.403 470.967C785.385 470.967 782.931 473.422 782.931 476.442C782.931 479.462 785.385 481.918 788.403 481.918C790.912 481.918 793.028 480.196 793.648 477.91H840.491L864.434 501.872H1198L1221.94 525.833H1279.59L1315.52 489.877H1478.66C1479.31 492.191 1481.4 493.884 1483.91 493.884C1486.93 493.884 1489.38 491.429 1489.38 488.409C1489.38 485.389 1486.98 482.934 1483.97 482.934Z" fill="url(#paint26_linear_3_42)" fill-opacity="0.25"/>
<path d="M223.469 297.505C225.612 299.65 229.081 299.65 231.196 297.505C233.34 295.36 233.34 291.888 231.196 289.771C229.42 287.993 226.74 287.711 224.654 288.897L178.798 242.977H60.6051C59.9565 240.662 57.8696 238.969 55.3596 238.969C52.3421 238.969 49.8885 241.424 49.8885 244.444C49.8885 247.464 52.3421 249.92 55.3596 249.92C57.8696 249.92 59.9847 248.198 60.6051 245.912H177.585L222.595 290.957C221.439 293.045 221.692 295.727 223.469 297.505Z" fill="url(#paint27_linear_3_42)" fill-opacity="0.25"/>
<path d="M25.4378 399.702C27.9477 399.702 30.0628 397.981 30.6833 395.694H200.175L244.648 351.186H351.363C352.012 353.5 354.099 355.194 356.609 355.194C359.626 355.194 362.08 352.738 362.08 349.718C362.08 346.698 359.626 344.243 356.609 344.243C354.099 344.243 352.012 345.936 351.363 348.251H243.436L198.962 392.759H30.6833C30.0346 390.445 27.9477 388.752 25.4378 388.752C22.4202 388.752 19.9667 391.207 19.9667 394.227C19.9385 397.275 22.392 399.702 25.4378 399.702Z" fill="url(#paint28_linear_3_42)" fill-opacity="0.25"/>
<path d="M27.1299 323.696C24.1123 323.696 21.6588 326.152 21.6588 329.172C21.6588 332.191 24.1123 334.647 27.1299 334.647C29.6399 334.647 31.755 332.925 32.3754 330.639H153.98L183.592 301.004C185.679 302.19 188.358 301.908 190.135 300.129C192.278 297.984 192.278 294.513 190.135 292.396C187.992 290.251 184.523 290.251 182.408 292.396C180.631 294.174 180.349 296.856 181.533 298.944L152.768 327.732H32.3754C31.755 325.418 29.6399 323.696 27.1299 323.696Z" fill="url(#paint29_linear_3_42)" fill-opacity="0.25"/>
<path d="M47.6606 368.91C50.1706 368.91 52.2857 367.189 52.9061 364.903H169.379L213.852 320.394H267.52C268.169 322.708 270.255 324.402 272.765 324.402C275.783 324.402 278.236 321.946 278.236 318.926C278.236 315.907 275.783 313.451 272.765 313.451C270.255 313.451 268.14 315.144 267.52 317.459H212.668L168.194 361.967H52.9061C52.2575 359.653 50.1706 357.96 47.6606 357.96C44.643 357.96 42.1895 360.415 42.1895 363.435C42.1895 366.455 44.643 368.91 47.6606 368.91Z" fill="url(#paint30_linear_3_42)" fill-opacity="0.25"/>
<path d="M1187.88 420.531C1188.53 422.846 1190.61 424.539 1193.12 424.539C1196.14 424.539 1198.59 422.084 1198.59 419.064C1198.59 416.044 1196.14 413.588 1193.12 413.588C1190.61 413.588 1188.5 415.282 1187.88 417.596H973.038L911.107 479.575H1023.63C1024.28 481.889 1026.37 483.583 1028.88 483.583C1031.89 483.583 1034.35 481.127 1034.35 478.107C1034.35 475.087 1031.89 472.632 1028.88 472.632C1026.37 472.632 1024.25 474.325 1023.63 476.64H918.13L974.251 420.503H1187.88V420.531Z" fill="url(#paint31_linear_3_42)" fill-opacity="0.25"/>
<path d="M1287.82 432.498H1462.67L1530.67 364.451H1639.53C1640.17 366.765 1642.26 368.459 1644.77 368.459C1647.79 368.459 1650.24 366.003 1650.24 362.983C1650.24 359.964 1647.79 357.508 1644.77 357.508C1642.26 357.508 1640.17 359.201 1639.53 361.516H1529.48L1461.49 429.563H1289.06L1233.48 373.934H987.646L941.763 419.854C939.676 418.669 936.996 418.951 935.22 420.729C933.076 422.874 933.076 426.345 935.22 428.462C937.363 430.607 940.832 430.607 942.947 428.462C944.724 426.684 945.006 424.003 943.821 421.914L988.831 376.869H1232.27L1287.82 432.498Z" fill="url(#paint32_linear_3_42)" fill-opacity="0.25"/>
<path d="M1479.34 220.285L1425.02 165.926H1296.37L1213.74 248.65C1211.65 247.464 1208.97 247.747 1207.2 249.525C1205.05 251.67 1205.05 255.141 1207.2 257.258C1209.34 259.403 1212.81 259.403 1214.92 257.258C1216.7 255.48 1216.98 252.799 1215.8 250.71L1297.61 168.833H1423.84L1478.16 223.192H1694.26C1694.91 225.506 1697 227.2 1699.51 227.2C1702.53 227.2 1704.98 224.744 1704.98 221.724C1704.98 218.704 1702.53 216.249 1699.51 216.249C1697 216.249 1694.88 217.942 1694.26 220.257H1479.34V220.285Z" fill="url(#paint33_linear_3_42)" fill-opacity="0.25"/>
<path d="M1709.78 421.293C1707.27 421.293 1705.15 422.987 1704.53 425.301H1557.26L1512.79 469.81H1242L1223.19 450.985H1029.75C1029.1 448.67 1027.02 446.977 1024.51 446.977C1021.49 446.977 1019.03 449.432 1019.03 452.452C1019.03 455.472 1021.49 457.928 1024.51 457.928C1027.02 457.928 1029.13 456.206 1029.75 453.92H1222L1240.81 472.745H1514.03L1558.5 428.236H1704.56C1705.21 430.551 1707.29 432.244 1709.8 432.244C1712.82 432.244 1715.27 429.789 1715.27 426.769C1715.27 423.749 1712.79 421.293 1709.78 421.293Z" fill="url(#paint34_linear_3_42)" fill-opacity="0.25"/>
<path d="M1600.64 258.979C1600.64 255.96 1598.18 253.504 1595.16 253.504C1592.65 253.504 1590.54 255.226 1589.92 257.512H1445.58L1407.93 219.862H1298.31C1297.67 217.547 1295.58 215.854 1293.07 215.854C1290.05 215.854 1287.6 218.309 1287.6 221.329C1287.6 224.349 1290.05 226.805 1293.07 226.805C1295.58 226.805 1297.69 225.083 1298.31 222.797H1393.78C1393.52 223.22 1393.33 223.672 1393.18 224.152H1299.81L1211.71 312.322H1017.77C1017.12 310.008 1015.03 308.314 1012.52 308.314C1009.5 308.314 1007.05 310.77 1007.05 313.79C1007.05 316.81 1009.5 319.265 1012.52 319.265C1015.03 319.265 1017.15 317.543 1017.77 315.257H1212.92L1301.02 227.087H1393.18C1393.83 229.401 1395.92 231.095 1398.43 231.095C1401.45 231.095 1403.9 228.639 1403.9 225.619C1403.9 224.575 1403.59 223.615 1403.08 222.797H1406.72L1444.34 260.447H1589.89C1590.54 262.761 1592.63 264.455 1595.14 264.455C1598.18 264.455 1600.64 261.999 1600.64 258.979Z" fill="url(#paint35_linear_3_42)" fill-opacity="0.25"/>
<path d="M1752.53 309.161C1750.02 309.161 1747.93 310.883 1747.28 313.169H1515.35L1434.11 394.481H1300.18L1245.18 339.445L1310.13 274.446C1312.22 275.631 1314.9 275.349 1316.67 273.571C1318.82 271.426 1318.82 267.955 1316.67 265.838C1314.53 263.693 1311.06 263.693 1308.95 265.838C1307.17 267.616 1306.89 270.297 1308.07 272.386L1241.07 339.445L1298.96 397.388H1435.32L1516.57 316.076H1747.31C1747.96 318.39 1750.05 320.084 1752.56 320.084C1755.57 320.084 1758.03 317.628 1758.03 314.608C1758 311.588 1755.57 309.161 1752.53 309.161Z" fill="url(#paint36_linear_3_42)" fill-opacity="0.25"/>
<path d="M1587.47 295.275C1590.48 295.275 1592.94 292.82 1592.94 289.8C1592.94 286.78 1590.48 284.324 1587.47 284.324C1584.96 284.324 1582.84 286.046 1582.22 288.332H1363.97L1324.09 328.24C1322 327.055 1319.32 327.337 1317.55 329.115C1315.4 331.26 1315.4 334.732 1317.55 336.848C1319.69 338.993 1323.16 338.993 1325.28 336.848C1327.05 335.07 1327.33 332.389 1326.15 330.301L1365.18 291.239H1582.22C1582.84 293.582 1584.96 295.275 1587.47 295.275Z" fill="url(#paint37_linear_3_42)" fill-opacity="0.5"/>
<path d="M1413.07 363.153L1438.42 337.78C1440.51 338.965 1443.19 338.683 1444.96 336.905C1447.11 334.76 1447.11 331.288 1444.96 329.172C1442.82 327.027 1439.35 327.027 1437.24 329.172C1435.46 330.95 1435.18 333.631 1436.36 335.719L1411.88 360.217H1339.01L1375.14 324.063C1377.22 325.248 1379.9 324.966 1381.68 323.188C1383.82 321.043 1383.82 317.572 1381.68 315.455C1379.54 313.31 1376.07 313.31 1373.95 315.455C1372.17 317.233 1371.89 319.914 1373.08 322.003L1331.99 363.125H1413.07V363.153Z" fill="url(#paint38_linear_3_42)" fill-opacity="0.25"/>
<defs>
<linearGradient id="paint0_linear_3_42" x1="0" y1="29.7928" x2="268.474" y2="29.7928" gradientUnits="userSpaceOnUse">
<stop/>
<stop offset="0.1072" stop-color="#141414"/>
<stop offset="0.326" stop-color="#464646"/>
<stop offset="0.6375" stop-color="#989898"/>
<stop offset="1" stop-color="white"/>
</linearGradient>
<linearGradient id="paint1_linear_3_42" x1="180.194" y1="49.5411" x2="579.356" y2="49.5411" gradientUnits="userSpaceOnUse">
<stop/>
<stop offset="0.1072" stop-color="#141414"/>
<stop offset="0.326" stop-color="#464646"/>
<stop offset="0.6375" stop-color="#989898"/>
<stop offset="1" stop-color="white"/>
</linearGradient>
<linearGradient id="paint2_linear_3_42" x1="351.263" y1="84.3526" x2="973.958" y2="84.3526" gradientUnits="userSpaceOnUse">
<stop/>
<stop offset="0.1072" stop-color="#141414"/>
<stop offset="0.326" stop-color="#464646"/>
<stop offset="0.6375" stop-color="#989898"/>
<stop offset="1" stop-color="white"/>
</linearGradient>
<linearGradient id="paint3_linear_3_42" x1="707.089" y1="55.2474" x2="1281.88" y2="55.2474" gradientUnits="userSpaceOnUse">
<stop/>
<stop offset="0.1072" stop-color="#141414"/>
<stop offset="0.326" stop-color="#464646"/>
<stop offset="0.6375" stop-color="#989898"/>
<stop offset="1" stop-color="white"/>
</linearGradient>
<linearGradient id="paint4_linear_3_42" x1="841.664" y1="98.9169" x2="1621.74" y2="98.9169" gradientUnits="userSpaceOnUse">
<stop/>
<stop offset="0.1072" stop-color="#141414"/>
<stop offset="0.326" stop-color="#464646"/>
<stop offset="0.6375" stop-color="#989898"/>
<stop offset="1" stop-color="white"/>
</linearGradient>
<linearGradient id="paint5_linear_3_42" x1="18.2475" y1="535.531" x2="271.891" y2="535.531" gradientUnits="userSpaceOnUse">
<stop/>
<stop offset="0.1072" stop-color="#141414"/>
<stop offset="0.326" stop-color="#464646"/>
<stop offset="0.6375" stop-color="#989898"/>
<stop offset="1" stop-color="white"/>
</linearGradient>
<linearGradient id="paint6_linear_3_42" x1="240.175" y1="526.279" x2="574.79" y2="526.279" gradientUnits="userSpaceOnUse">
<stop/>
<stop offset="0.1072" stop-color="#141414"/>
<stop offset="0.326" stop-color="#464646"/>
<stop offset="0.6375" stop-color="#989898"/>
<stop offset="1" stop-color="white"/>
</linearGradient>
<linearGradient id="paint7_linear_3_42" x1="531.453" y1="556.312" x2="1170.12" y2="556.312" gradientUnits="userSpaceOnUse">
<stop/>
<stop offset="0.1072" stop-color="#141414"/>
<stop offset="0.326" stop-color="#464646"/>
<stop offset="0.6375" stop-color="#989898"/>
<stop offset="1" stop-color="white"/>
</linearGradient>
<linearGradient id="paint8_linear_3_42" x1="1106.25" y1="567.143" x2="1578.4" y2="567.143" gradientUnits="userSpaceOnUse">
<stop/>
<stop offset="0.1072" stop-color="#141414"/>
<stop offset="0.326" stop-color="#464646"/>
<stop offset="0.6375" stop-color="#989898"/>
<stop offset="1" stop-color="white"/>
</linearGradient>
<linearGradient id="paint9_linear_3_42" x1="22.808" y1="393.312" x2="591.223" y2="393.312" gradientUnits="userSpaceOnUse">
<stop/>
<stop offset="0.1072" stop-color="#141414"/>
<stop offset="0.326" stop-color="#464646"/>
<stop offset="0.6375" stop-color="#989898"/>
<stop offset="1" stop-color="white"/>
</linearGradient>
<linearGradient id="paint10_linear_3_42" x1="265.266" y1="493.257" x2="1573.84" y2="493.257" gradientUnits="userSpaceOnUse">
<stop/>
<stop offset="0.1072" stop-color="#141414"/>
<stop offset="0.326" stop-color="#464646"/>
<stop offset="0.6375" stop-color="#989898"/>
<stop offset="1" stop-color="white"/>
</linearGradient>
<linearGradient id="paint11_linear_3_42" x1="297.197" y1="488.747" x2="546.172" y2="488.747" gradientUnits="userSpaceOnUse">
<stop/>
<stop offset="0.1072" stop-color="#141414"/>
<stop offset="0.326" stop-color="#464646"/>
<stop offset="0.6375" stop-color="#989898"/>
<stop offset="1" stop-color="white"/>
</linearGradient>
<linearGradient id="paint12_linear_3_42" x1="18.8163" y1="125.439" x2="1154.04" y2="125.439" gradientUnits="userSpaceOnUse">
<stop/>
<stop offset="0.1072" stop-color="#141414"/>
<stop offset="0.326" stop-color="#464646"/>
<stop offset="0.6375" stop-color="#989898"/>
<stop offset="1" stop-color="white"/>
</linearGradient>
<linearGradient id="paint13_linear_3_42" x1="277.517" y1="174.584" x2="671.725" y2="174.584" gradientUnits="userSpaceOnUse">
<stop/>
<stop offset="0.1072" stop-color="#141414"/>
<stop offset="0.326" stop-color="#464646"/>
<stop offset="0.6375" stop-color="#989898"/>
<stop offset="1" stop-color="white"/>
</linearGradient>
<linearGradient id="paint14_linear_3_42" x1="88.3811" y1="145.061" x2="598.058" y2="145.061" gradientUnits="userSpaceOnUse">
<stop/>
<stop offset="0.1072" stop-color="#141414"/>
<stop offset="0.326" stop-color="#464646"/>
<stop offset="0.6375" stop-color="#989898"/>
<stop offset="1" stop-color="white"/>
</linearGradient>
<linearGradient id="paint15_linear_3_42" x1="215.075" y1="224.243" x2="698.56" y2="224.243" gradientUnits="userSpaceOnUse">
<stop/>
<stop offset="0.1072" stop-color="#141414"/>
<stop offset="0.326" stop-color="#464646"/>
<stop offset="0.6375" stop-color="#989898"/>
<stop offset="1" stop-color="white"/>
</linearGradient>
<linearGradient id="paint16_linear_3_42" x1="35.3464" y1="165.167" x2="1326.92" y2="165.167" gradientUnits="userSpaceOnUse">
<stop/>
<stop offset="0.1072" stop-color="#141414"/>
<stop offset="0.326" stop-color="#464646"/>
<stop offset="0.6375" stop-color="#989898"/>
<stop offset="1" stop-color="white"/>
</linearGradient>
<linearGradient id="paint17_linear_3_42" x1="540.109" y1="399.074" x2="1188.36" y2="399.074" gradientUnits="userSpaceOnUse">
<stop/>
<stop offset="0.1072" stop-color="#141414"/>
<stop offset="0.326" stop-color="#464646"/>
<stop offset="0.6375" stop-color="#989898"/>
<stop offset="1" stop-color="white"/>
</linearGradient>
<linearGradient id="paint18_linear_3_42" x1="300.506" y1="316.541" x2="548.649" y2="316.541" gradientUnits="userSpaceOnUse">
<stop/>
<stop offset="0.1072" stop-color="#141414"/>
<stop offset="0.326" stop-color="#464646"/>
<stop offset="0.6375" stop-color="#989898"/>
<stop offset="1" stop-color="white"/>
</linearGradient>
<linearGradient id="paint19_linear_3_42" x1="526.422" y1="356.999" x2="967.565" y2="356.999" gradientUnits="userSpaceOnUse">
<stop/>
<stop offset="0.1072" stop-color="#141414"/>
<stop offset="0.326" stop-color="#464646"/>
<stop offset="0.6375" stop-color="#989898"/>
<stop offset="1" stop-color="white"/>
</linearGradient>
<linearGradient id="paint20_linear_3_42" x1="52.4512" y1="270.114" x2="473.285" y2="270.114" gradientUnits="userSpaceOnUse">
<stop/>
<stop offset="0.1072" stop-color="#141414"/>
<stop offset="0.326" stop-color="#464646"/>
<stop offset="0.6375" stop-color="#989898"/>
<stop offset="1" stop-color="white"/>
</linearGradient>
<linearGradient id="paint21_linear_3_42" x1="23.3684" y1="401.737" x2="302.962" y2="401.737" gradientUnits="userSpaceOnUse">
<stop/>
<stop offset="0.1072" stop-color="#141414"/>
<stop offset="0.326" stop-color="#464646"/>
<stop offset="0.6375" stop-color="#989898"/>
<stop offset="1" stop-color="white"/>
</linearGradient>
<linearGradient id="paint22_linear_3_42" x1="671.829" y1="220.251" x2="1179.26" y2="220.251" gradientUnits="userSpaceOnUse">
<stop/>
<stop offset="0.1072" stop-color="#141414"/>
<stop offset="0.326" stop-color="#464646"/>
<stop offset="0.6375" stop-color="#989898"/>
<stop offset="1" stop-color="white"/>
</linearGradient>
<linearGradient id="paint23_linear_3_42" x1="651.959" y1="296.148" x2="1111.37" y2="296.148" gradientUnits="userSpaceOnUse">
<stop/>
<stop offset="0.1072" stop-color="#141414"/>
<stop offset="0.326" stop-color="#464646"/>
<stop offset="0.6375" stop-color="#989898"/>
<stop offset="1" stop-color="white"/>
</linearGradient>
<linearGradient id="paint24_linear_3_42" x1="620.512" y1="353.074" x2="924.798" y2="353.074" gradientUnits="userSpaceOnUse">
<stop/>
<stop offset="0.1072" stop-color="#141414"/>
<stop offset="0.326" stop-color="#464646"/>
<stop offset="0.6375" stop-color="#989898"/>
<stop offset="1" stop-color="white"/>
</linearGradient>
<linearGradient id="paint25_linear_3_42" x1="723.807" y1="213.853" x2="1378.24" y2="213.853" gradientUnits="userSpaceOnUse">
<stop/>
<stop offset="0.1072" stop-color="#141414"/>
<stop offset="0.326" stop-color="#464646"/>
<stop offset="0.6375" stop-color="#989898"/>
<stop offset="1" stop-color="white"/>
</linearGradient>
<linearGradient id="paint26_linear_3_42" x1="782.917" y1="498.372" x2="1489.43" y2="498.372" gradientUnits="userSpaceOnUse">
<stop/>
<stop offset="0.1072" stop-color="#141414"/>
<stop offset="0.326" stop-color="#464646"/>
<stop offset="0.6375" stop-color="#989898"/>
<stop offset="1" stop-color="white"/>
</linearGradient>
<linearGradient id="paint27_linear_3_42" x1="49.8869" y1="269.034" x2="232.823" y2="269.034" gradientUnits="userSpaceOnUse">
<stop/>
<stop offset="0.1072" stop-color="#141414"/>
<stop offset="0.326" stop-color="#464646"/>
<stop offset="0.6375" stop-color="#989898"/>
<stop offset="1" stop-color="white"/>
</linearGradient>
<linearGradient id="paint28_linear_3_42" x1="19.9506" y1="371.98" x2="362.087" y2="371.98" gradientUnits="userSpaceOnUse">
<stop/>
<stop offset="0.1072" stop-color="#141414"/>
<stop offset="0.326" stop-color="#464646"/>
<stop offset="0.6375" stop-color="#989898"/>
<stop offset="1" stop-color="white"/>
</linearGradient>
<linearGradient id="paint29_linear_3_42" x1="21.6622" y1="312.711" x2="191.767" y2="312.711" gradientUnits="userSpaceOnUse">
<stop/>
<stop offset="0.1072" stop-color="#141414"/>
<stop offset="0.326" stop-color="#464646"/>
<stop offset="0.6375" stop-color="#989898"/>
<stop offset="1" stop-color="white"/>
</linearGradient>
<linearGradient id="paint30_linear_3_42" x1="42.1901" y1="341.163" x2="278.264" y2="341.163" gradientUnits="userSpaceOnUse">
<stop/>
<stop offset="0.1072" stop-color="#141414"/>
<stop offset="0.326" stop-color="#464646"/>
<stop offset="0.6375" stop-color="#989898"/>
<stop offset="1" stop-color="white"/>
</linearGradient>
<linearGradient id="paint31_linear_3_42" x1="911.13" y1="448.593" x2="1198.62" y2="448.593" gradientUnits="userSpaceOnUse">
<stop/>
<stop offset="0.1072" stop-color="#141414"/>
<stop offset="0.326" stop-color="#464646"/>
<stop offset="0.6375" stop-color="#989898"/>
<stop offset="1" stop-color="white"/>
</linearGradient>
<linearGradient id="paint32_linear_3_42" x1="933.568" y1="395.008" x2="1650.24" y2="395.008" gradientUnits="userSpaceOnUse">
<stop/>
<stop offset="0.1072" stop-color="#141414"/>
<stop offset="0.326" stop-color="#464646"/>
<stop offset="0.6375" stop-color="#989898"/>
<stop offset="1" stop-color="white"/>
</linearGradient>
<linearGradient id="paint33_linear_3_42" x1="1205.57" y1="212.408" x2="1704.98" y2="212.408" gradientUnits="userSpaceOnUse">
<stop/>
<stop offset="0.1072" stop-color="#141414"/>
<stop offset="0.326" stop-color="#464646"/>
<stop offset="0.6375" stop-color="#989898"/>
<stop offset="1" stop-color="white"/>
</linearGradient>
<linearGradient id="paint34_linear_3_42" x1="1019" y1="447.011" x2="1715.24" y2="447.011" gradientUnits="userSpaceOnUse">
<stop/>
<stop offset="0.1072" stop-color="#141414"/>
<stop offset="0.326" stop-color="#464646"/>
<stop offset="0.6375" stop-color="#989898"/>
<stop offset="1" stop-color="white"/>
</linearGradient>
<linearGradient id="paint35_linear_3_42" x1="1007.02" y1="267.546" x2="1600.63" y2="267.546" gradientUnits="userSpaceOnUse">
<stop/>
<stop offset="0.1072" stop-color="#141414"/>
<stop offset="0.326" stop-color="#464646"/>
<stop offset="0.6375" stop-color="#989898"/>
<stop offset="1" stop-color="white"/>
</linearGradient>
<linearGradient id="paint36_linear_3_42" x1="1241.04" y1="330.817" x2="1758.01" y2="330.817" gradientUnits="userSpaceOnUse">
<stop/>
<stop offset="0.1072" stop-color="#141414"/>
<stop offset="0.326" stop-color="#464646"/>
<stop offset="0.6375" stop-color="#989898"/>
<stop offset="1" stop-color="white"/>
</linearGradient>
<linearGradient id="paint37_linear_3_42" x1="1315.9" y1="311.406" x2="1592.93" y2="311.406" gradientUnits="userSpaceOnUse">
<stop/>
<stop offset="0.1072" stop-color="#141414"/>
<stop offset="0.326" stop-color="#464646"/>
<stop offset="0.6375" stop-color="#989898"/>
<stop offset="1" stop-color="white"/>
</linearGradient>
<linearGradient id="paint38_linear_3_42" x1="1331.96" y1="338.521" x2="1446.56" y2="338.521" gradientUnits="userSpaceOnUse">
<stop/>
<stop offset="0.1072" stop-color="#141414"/>
<stop offset="0.326" stop-color="#464646"/>
<stop offset="0.6375" stop-color="#989898"/>
<stop offset="1" stop-color="white"/>
</linearGradient>
</defs>
</svg>
