<svg width="32" height="32" viewBox="0 0 32 32" fill="none" xmlns="http://www.w3.org/2000/svg">
<g clip-path="url(#clip0_142_41)">
<g clip-path="url(#clip1_142_41)">
<path d="M14.8318 11.1468H17.5551L17.7646 11.3563L20.4879 20.9926H20.6974L22.7922 11.3563L23.0017 11.1468H25.0965L25.306 11.3563V13.4511L22.1638 25.6012L21.9543 25.8107H19.231L19.0215 25.6012L16.2982 15.546H16.0887L13.3654 25.6012L13.1559 25.8107H10.4326L10.2231 25.6012L7.08086 13.4511V11.3563L7.29034 11.1468H9.38519L9.59467 11.3563L11.6895 20.9926H11.899L14.6223 11.3563L14.8318 11.1468Z" fill="#00F485"/>
<path d="M24.3184 8.07458H7.38735L7.21484 7.90208V6.1725L7.38735 6H24.3184L24.4909 6.1725V7.90208L24.3184 8.07458Z" fill="#00F485"/>
</g>
</g>
<defs>
<clipPath id="clip0_142_41">
<rect width="32" height="32" fill="white"/>
</clipPath>
<clipPath id="clip1_142_41">
<rect width="76" height="19.8742" fill="white" transform="translate(7 6)"/>
</clipPath>
</defs>
</svg>
