<svg width="200" height="59" viewBox="0 0 200 59" fill="none" xmlns="http://www.w3.org/2000/svg">
<path d="M0 31.558V58.1107H21.6137V55.9431H2.17589V31.558H0ZM39.3682 30.8403L25.6457 58.1107H28.2149L40.1217 34.5768L51.8906 58.1107H54.4542L40.8751 30.8403H39.3682ZM58.3319 45.5593H70.9131L73.0761 48.0363V53.2666L70.8929 55.9431H58.3319V45.5593ZM58.3319 33.3667H70.9278L73.0761 35.5343V40.9166L70.9021 43.3936H58.3319V33.3685V33.3667ZM56.1578 30.8403V58.1107H71.9L75.6122 54.16V47.1062L73.0945 44.5341L75.6122 41.8136V34.5878L71.8816 30.8403H56.1578ZM92.468 30.8403L78.8356 58.1107H81.4048L95.0464 30.8403H92.468ZM80.2764 0.358821V2.52639H84.2367V25.1028H80.2764V27.2704H90.3711V25.1028H86.4108V2.52456H90.3711V0.358821H80.2764ZM25.4381 0L13.5644 11.8704L1.60803 0H0V27.2686H2.17589V3.89028L13.5534 15.184L24.839 3.90309V27.2686H27.0149V0H25.4399H25.4381ZM32.7578 0V27.2686H51.1316V25.101H34.9319V14.7172H46.8111V12.5496H34.9319V2.16757H51.1316V0H32.7578ZM58.3319 2.16757H70.9149L73.0761 4.61891V22.3659L70.891 25.1028H58.3319V2.16757ZM56.1578 0V27.2686H71.9147L75.252 23.2428V3.69622L71.8908 0H56.1578ZM107.995 0L94.2727 27.2686H96.8419L108.749 3.73467L120.518 27.2686H123.079L109.502 0H107.995Z" fill="white"/>
<path d="M78.8356 58.1107L92.468 30.8403H95.0464L81.4048 58.1107H78.8356Z" fill="white"/>
<path d="M121.819 30.8403V53.695L119.63 55.7601H107.199L105.011 53.695V30.8403H102.666V54.7092L106.262 58.0961H120.567L124.164 54.7092V30.8403H121.819Z" fill="#00F485"/>
<path d="M127.29 30.8403V58.0961H129.635V44.4682H141.674V42.1322H129.635V33.1763H145.66V30.8403H127.29Z" fill="#00F485"/>
<path d="M174.4 30.8787L162.909 41.7038L151.377 30.8787H148.72V58.096H151.065V33.8775L162.517 44.6238L162.868 44.9734H162.909L163.26 44.6238L174.713 33.8775V58.096H177.058V30.8787H174.4Z" fill="#00F485"/>
<path d="M180.184 30.8403V32.8266H188.939V58.0961H191.284V32.8266H200V30.8403H180.184Z" fill="#00F485"/>
</svg>
