<svg width="402" height="105" viewBox="0 0 402 105" fill="none" xmlns="http://www.w3.org/2000/svg">
<g clip-path="url(#clip0_3_123)">
<path d="M41.3769 26.5273H55.7647L56.8714 27.634L71.2592 78.5447H72.366L83.4335 27.634L84.5403 26.5273H95.6078L96.7146 27.634V38.7015L80.1133 102.893L79.0065 104H64.6187L63.512 102.893L49.1242 49.7691H48.0174L33.6296 102.893L32.5229 104H18.1351L17.0283 102.893L0.427014 38.7015V27.634L1.53377 26.5273H12.6013L13.7081 27.634L24.7756 78.5447H25.8823L40.2701 27.634L41.3769 26.5273ZM152.095 76.3312V80.7582L150.989 81.8649H116.679L115.573 82.9717C115.573 84.7425 116.458 86.6609 118.229 88.7268C120 90.7927 122.803 91.8257 126.64 91.8257C130.698 91.8257 133.281 90.719 134.387 88.5055L135.494 87.3987H148.775L149.882 88.5055C149.587 90.35 148.96 92.1577 148 93.9285C147.115 95.6993 145.824 97.4702 144.127 99.241C142.43 101.012 140.069 102.451 137.044 103.557C134.018 104.59 130.551 105.107 126.64 105.107C117.712 105.107 110.85 102.377 106.055 96.9168C101.332 91.4568 98.9713 84.5949 98.9713 76.3312C98.9713 68.1412 101.259 61.3162 105.833 55.8562C110.482 50.3225 117.048 47.5556 125.533 47.5556C134.018 47.5556 140.548 50.3225 145.123 55.8562C149.771 61.3162 152.095 68.1412 152.095 76.3312ZM134.387 70.7974L135.494 69.6906C135.494 69.2479 135.383 68.6208 135.162 67.8092C134.941 66.9975 134.498 66.0384 133.834 64.9316C133.244 63.7511 132.211 62.7919 130.735 62.054C129.333 61.2424 127.599 60.8366 125.533 60.8366C123.467 60.8366 121.697 61.2424 120.221 62.054C118.819 62.7919 117.786 63.7511 117.122 64.9316C116.532 66.0384 116.126 66.9975 115.905 67.8092C115.683 68.6208 115.573 69.2479 115.573 69.6906L116.679 70.7974H134.387ZM210.315 55.5242C215.037 60.7628 217.398 67.6985 217.398 76.3312C217.398 84.9638 215.037 91.9364 210.315 97.2488C205.667 102.487 199.912 105.107 193.05 105.107C190.098 105.107 187.405 104.664 184.97 103.779C182.609 102.819 180.949 101.86 179.99 100.901L178.662 99.573H177.555L176.448 102.893L175.342 104H163.167L162.061 102.893V27.634L163.167 26.5273H176.448L177.555 27.634V53.0893H178.662C178.957 52.6466 179.437 52.1302 180.101 51.5399C180.838 50.9496 182.425 50.138 184.86 49.105C187.368 48.0721 190.098 47.5556 193.05 47.5556C199.912 47.5556 205.667 50.2118 210.315 55.5242ZM189.729 91.8257C197.846 91.8257 201.904 86.6609 201.904 76.3312C201.904 66.0015 197.846 60.8366 189.729 60.8366C181.613 60.8366 177.555 66.0015 177.555 76.3312C177.555 86.6609 181.613 91.8257 189.729 91.8257ZM281.573 102.893L280.466 104H230.662L229.555 102.893V27.634L230.662 26.5273H243.943L245.05 27.634V89.6122L246.157 90.719H280.466L281.573 91.8257V102.893ZM333.568 102.893L332.462 104H320.287L319.181 102.893L318.074 100.68H316.967C316.672 100.975 316.192 101.381 315.528 101.897C314.864 102.414 313.462 103.078 311.323 103.889C309.257 104.701 307.08 105.107 304.793 105.107C298.669 105.107 293.799 103.557 290.184 100.458C286.642 97.2857 284.871 92.9325 284.871 87.3987C284.871 84.226 285.425 81.4591 286.531 79.098C287.712 76.737 289.151 74.9293 290.848 73.675C292.545 72.3469 294.537 71.277 296.824 70.4654C299.185 69.6538 301.325 69.1373 303.243 68.9159C305.162 68.6946 307.154 68.5839 309.22 68.5839C310.548 68.5839 311.839 68.6946 313.093 68.9159C314.422 69.0635 315.418 69.2479 316.082 69.4693L316.967 69.6906L318.074 68.5839V67.4771C318.074 64.6734 317.594 62.8657 316.635 62.054C315.75 61.2424 313.647 60.8366 310.327 60.8366C308.851 60.8366 307.707 60.8735 306.896 60.9473C306.158 61.0211 305.346 61.3162 304.461 61.8327C303.575 62.3492 302.948 63.1239 302.579 64.1569L301.473 65.2636H288.192L287.085 64.1569C287.085 60.025 288.966 56.2251 292.729 52.7573C296.492 49.2895 302.358 47.5556 310.327 47.5556C318.886 47.5556 324.899 49.6215 328.367 53.7534C331.835 57.8853 333.568 64.3044 333.568 73.0109V102.893ZM318.074 81.8649L316.967 80.7582C315.491 80.0203 313.278 79.6514 310.327 79.6514C303.686 79.6514 300.366 81.8649 300.366 86.2919C300.366 89.9811 302.948 91.8257 308.113 91.8257C310.917 91.8257 313.278 91.0879 315.196 89.6122C317.115 88.1365 318.074 86.2919 318.074 84.0784V81.8649ZM393.945 55.5242C398.667 60.7628 401.029 67.6985 401.029 76.3312C401.029 84.9638 398.667 91.9364 393.945 97.2488C389.297 102.487 383.542 105.107 376.68 105.107C373.729 105.107 371.035 104.664 368.601 103.779C366.24 102.819 364.579 101.86 363.62 100.901L362.292 99.573H361.185L360.079 102.893L358.972 104H346.798L345.691 102.893V27.634L346.798 26.5273H360.079L361.185 27.634V53.0893H362.292C362.587 52.6466 363.067 52.1302 363.731 51.5399C364.469 50.9496 366.055 50.138 368.49 49.105C370.999 48.0721 373.729 47.5556 376.68 47.5556C383.542 47.5556 389.297 50.2118 393.945 55.5242ZM373.36 91.8257C381.476 91.8257 385.534 86.6609 385.534 76.3312C385.534 66.0015 381.476 60.8366 373.36 60.8366C365.243 60.8366 361.185 66.0015 361.185 76.3312C361.185 86.6609 365.243 91.8257 373.36 91.8257Z" fill="#00F485"/>
<path d="M91.4972 10.9605H2.04651L1.13513 10.0491V0.911375L2.04651 0H91.4972L92.4085 0.911375V10.0491L91.4972 10.9605Z" fill="#00F485"/>
</g>
<defs>
<clipPath id="clip0_3_123">
<rect width="401.525" height="105" fill="white"/>
</clipPath>
</defs>
</svg>
