<svg width="253" height="71" viewBox="0 0 253 71" fill="none" xmlns="http://www.w3.org/2000/svg">
<path d="M25.915 16.7355H34.9475L35.6423 17.4303L44.6748 49.3916H45.3697L52.3178 17.4303L53.0126 16.7355H59.9607L60.6555 17.4303V24.3784L50.2333 64.6774L49.5385 65.3722H40.506L39.8112 64.6774L30.7786 31.3265H30.0838L21.0513 64.6774L20.3565 65.3722H11.3239L10.6291 64.6774L0.206977 24.3784V17.4303L0.901787 16.7355H7.84989L8.5447 17.4303L15.4928 49.3916H16.1876L25.2202 17.4303L25.915 16.7355ZM95.4232 48.0019V50.7812L94.7283 51.476H73.1892L72.4944 52.1708C72.4944 53.2825 73.0503 54.4868 74.162 55.7838C75.2736 57.0808 77.0338 57.7293 79.4425 57.7293C81.9901 57.7293 83.6114 57.0345 84.3062 55.6448L85.001 54.95H93.3387L94.0335 55.6448C93.8482 56.8029 93.4545 57.9377 92.8524 59.0494C92.2965 60.1611 91.4859 61.2728 90.4205 62.3845C89.3551 63.4962 87.8729 64.3995 85.9737 65.0943C84.0746 65.7428 81.8975 66.067 79.4425 66.067C73.8377 66.067 69.5299 64.3531 66.519 60.9254C63.5545 57.4977 62.0722 53.1898 62.0722 48.0019C62.0722 42.8603 63.5082 38.5757 66.3801 35.1479C69.2983 31.6739 73.4208 29.9369 78.7477 29.9369C84.0746 29.9369 88.174 31.6739 91.0458 35.1479C93.9641 38.5757 95.4232 42.8603 95.4232 48.0019ZM84.3062 44.5279L85.001 43.8331C85.001 43.5551 84.9315 43.1614 84.7926 42.6519C84.6536 42.1424 84.3757 41.5402 83.9588 40.8454C83.5882 40.1042 82.9397 39.5021 82.0133 39.0389C81.1332 38.5293 80.0447 38.2746 78.7477 38.2746C77.4507 38.2746 76.339 38.5293 75.4126 39.0389C74.5325 39.5021 73.884 40.1042 73.4671 40.8454C73.0966 41.5402 72.8418 42.1424 72.7028 42.6519C72.5639 43.1614 72.4944 43.5551 72.4944 43.8331L73.1892 44.5279H84.3062ZM131.973 34.9395C134.937 38.2283 136.42 42.5824 136.42 48.0019C136.42 53.4215 134.937 57.7988 131.973 61.1338C129.055 64.4226 125.442 66.067 121.134 66.067C119.281 66.067 117.59 65.7891 116.062 65.2332C114.579 64.6311 113.537 64.0289 112.935 63.4267L112.101 62.593H111.407L110.712 64.6774L110.017 65.3722H102.374L101.679 64.6774V17.4303L102.374 16.7355H110.712L111.407 17.4303V33.4109H112.101C112.287 33.133 112.588 32.8087 113.005 32.4382C113.468 32.0676 114.464 31.5581 115.992 30.9096C117.567 30.2611 119.281 29.9369 121.134 29.9369C125.442 29.9369 129.055 31.6044 131.973 34.9395ZM119.049 57.7293C124.145 57.7293 126.692 54.4868 126.692 48.0019C126.692 41.517 124.145 38.2746 119.049 38.2746C113.954 38.2746 111.407 41.517 111.407 48.0019C111.407 54.4868 113.954 57.7293 119.049 57.7293ZM176.708 64.6774L176.013 65.3722H144.747L144.052 64.6774V17.4303L144.747 16.7355H153.084L153.779 17.4303V56.3397L154.474 57.0345H176.013L176.708 57.7293V64.6774ZM209.35 64.6774L208.656 65.3722H201.013L200.318 64.6774L199.623 63.2878H198.928C198.743 63.473 198.442 63.7278 198.025 64.0521C197.608 64.3763 196.728 64.7932 195.385 65.3027C194.088 65.8122 192.721 66.067 191.285 66.067C187.441 66.067 184.383 65.0943 182.114 63.1488C179.89 61.157 178.779 58.4241 178.779 54.95C178.779 52.9582 179.126 51.2212 179.821 49.739C180.562 48.2567 181.465 47.1218 182.531 46.3344C183.596 45.5006 184.847 44.829 186.283 44.3194C187.765 43.8099 189.108 43.4857 190.313 43.3467C191.517 43.2077 192.768 43.1383 194.065 43.1383C194.898 43.1383 195.709 43.2077 196.496 43.3467C197.33 43.4393 197.955 43.5551 198.372 43.6941L198.928 43.8331L199.623 43.1383V42.4434C199.623 40.6833 199.322 39.5484 198.72 39.0389C198.164 38.5293 196.844 38.2746 194.759 38.2746C193.833 38.2746 193.115 38.2977 192.605 38.3441C192.142 38.3904 191.633 38.5757 191.077 38.8999C190.521 39.2242 190.127 39.7105 189.896 40.359L189.201 41.0538H180.863L180.168 40.359C180.168 37.7651 181.349 35.3795 183.712 33.2025C186.074 31.0254 189.757 29.9369 194.759 29.9369C200.133 29.9369 203.908 31.2338 206.085 33.8278C208.262 36.4218 209.35 40.4517 209.35 45.9175V64.6774ZM199.623 51.476L198.928 50.7812C198.002 50.318 196.612 50.0864 194.759 50.0864C190.59 50.0864 188.506 51.476 188.506 54.2552C188.506 56.5713 190.127 57.7293 193.37 57.7293C195.13 57.7293 196.612 57.2661 197.816 56.3397C199.021 55.4132 199.623 54.2552 199.623 52.8656V51.476ZM247.254 34.9395C250.219 38.2283 251.701 42.5824 251.701 48.0019C251.701 53.4215 250.219 57.7988 247.254 61.1338C244.336 64.4226 240.723 66.067 236.415 66.067C234.563 66.067 232.872 65.7891 231.343 65.2332C229.861 64.6311 228.819 64.0289 228.217 63.4267L227.383 62.593H226.688L225.993 64.6774L225.298 65.3722H217.655L216.961 64.6774V17.4303L217.655 16.7355H225.993L226.688 17.4303V33.4109H227.383C227.568 33.133 227.869 32.8087 228.286 32.4382C228.749 32.0676 229.745 31.5581 231.274 30.9096C232.849 30.2611 234.563 29.9369 236.415 29.9369C240.723 29.9369 244.336 31.6044 247.254 34.9395ZM234.331 57.7293C239.426 57.7293 241.974 54.4868 241.974 48.0019C241.974 41.517 239.426 38.2746 234.331 38.2746C229.236 38.2746 226.688 41.517 226.688 48.0019C226.688 54.4868 229.236 57.7293 234.331 57.7293Z" fill="white"/>
<path d="M57.6523 7.33963H1.28959L0.715332 6.72933V0.610297L1.28959 0H57.6523L58.2266 0.610297V6.72933L57.6523 7.33963Z" fill="white"/>
</svg>
